<?xml version="1.0" encoding="utf-8"?>
<svg viewBox="0 0 470 250" xmlns="http://www.w3.org/2000/svg">
  <rect style="fill: rgb(216, 216, 216);" x="0" y="0" width="470" height="250"/>
  <rect x="45" y="50" width="100" height="160" style="fill: rgb(158, 16, 16);"/>
  <rect x="160" y="50" width="108.105" height="162.502" style="fill: rgb(158, 16, 16);"/>
  <rect x="288.903" y="50" width="87.499" height="162.502" style="fill: rgb(158, 16, 16);"/>
  <text x="11.651" y="232.679" transform="matrix(1, 0, 0, 1.000001, 364.395538, -212.56424)" style="fill: rgb(132, 15, 15); font-family: Ubuntu, sans-serif; font-size: 18px; font-weight: bold; white-space: pre;">cross start</text>
  <path d="M 436.127 156.344 L 422.03 166.974 C 421.186 167.561 420.764 168.36 420.764 169.242 C 420.764 170.123 421.186 170.912 422.03 171.509 L 436.127 182.18 C 437.8 183.446 440.527 183.446 442.199 182.18 C 443.873 180.914 443.873 178.869 442.199 177.604 L 435.438 172.501 L 465.939 172.501 C 468.314 172.501 470.24 171.054 470.24 169.262 C 470.24 167.47 468.314 166.022 465.939 166.022 L 435.438 166.022 L 442.212 160.92 C 443.885 159.655 443.885 157.609 442.212 156.344 C 440.527 155.078 437.813 155.078 436.127 156.344 Z" transform="matrix(0, 0, -1, -1, 0, 620)"/>
  <text x="380.927" y="96.031" style="font-family: Ubuntu, sans-serif; font-size: 18px; white-space: pre;">cross axis</text>
  <text x="11.651" y="232.679" transform="matrix(1, 0, 0, 1.000001, 367.37793, 8.947045)" style="fill: rgb(132, 15, 15); font-family: Ubuntu, sans-serif; font-size: 18px; font-weight: bold; white-space: pre;">cross end</text>
  <path d="M 413.099 114.503 L 399.002 125.133 C 398.158 125.72 397.736 126.519 397.736 127.401 C 397.736 128.282 398.158 129.071 399.002 129.668 L 413.099 140.339 C 414.772 141.605 417.499 141.605 419.171 140.339 C 420.845 139.073 420.845 137.028 419.171 135.763 L 412.41 130.66 L 442.911 130.66 C 445.286 130.66 447.212 129.213 447.212 127.421 C 447.212 125.629 445.286 124.181 442.911 124.181 L 412.41 124.181 L 419.184 119.079 C 420.857 117.814 420.857 115.768 419.184 114.503 C 417.499 113.237 414.785 113.237 413.099 114.503 Z" transform="matrix(0, -1, 1, 0, 295.053012, 549.895004)"/>
</svg>