<?xml version="1.0" encoding="utf-8"?>
<svg viewBox="0 0 470 250" xmlns="http://www.w3.org/2000/svg">
  <rect style="fill: rgb(216, 216, 216);" x="0" y="0" width="470" height="250"/>
  <rect x="45" y="50" width="100" height="160" style="fill: rgb(158, 16, 16);"/>
  <rect x="160" y="50" width="108.105" height="162.502" style="fill: rgb(158, 16, 16);"/>
  <rect x="288.903" y="50" width="108.105" height="162.502" style="fill: rgb(158, 16, 16);"/>
  <text x="45" y="240" style="font-size: 22px; white-space: pre; font-family: Ubuntu, sans-serif;">main axis</text>
  <text x="360" y="30" style="font-size: 22px; white-space: pre; font-family: Ubuntu, sans-serif;">cross axis</text>
  <path d="M 436.127 156.344 L 422.03 166.974 C 421.186 167.561 420.764 168.36 420.764 169.242 C 420.764 170.123 421.186 170.912 422.03 171.509 L 436.127 182.18 C 437.8 183.446 440.527 183.446 442.199 182.18 C 443.873 180.914 443.873 178.869 442.199 177.604 L 435.438 172.501 L 465.939 172.501 C 468.314 172.501 470.24 171.054 470.24 169.262 C 470.24 167.47 468.314 166.022 465.939 166.022 L 435.438 166.022 L 442.212 160.92 C 443.885 159.655 443.885 157.609 442.212 156.344 C 440.527 155.078 437.813 155.078 436.127 156.344 Z" transform="matrix(0, -1, 1, 0, 260, 520)"/>
  <path d="M 436.127 156.344 L 422.03 166.974 C 421.186 167.561 420.764 168.36 420.764 169.242 C 420.764 170.123 421.186 170.912 422.03 171.509 L 436.127 182.18 C 437.8 183.446 440.527 183.446 442.199 182.18 C 443.873 180.914 443.873 178.869 442.199 177.604 L 435.438 172.501 L 465.939 172.501 C 468.314 172.501 470.24 171.054 470.24 169.262 C 470.24 167.47 468.314 166.022 465.939 166.022 L 435.438 166.022 L 442.212 160.92 C 443.885 159.655 443.885 157.609 442.212 156.344 C 440.527 155.078 437.813 155.078 436.127 156.344 Z" transform="matrix(0, 0, -1, -1, 0, 620)"/>
  <path d="M 174.569 219.803 L 160.472 230.433 C 159.628 231.02 159.206 231.819 159.206 232.701 C 159.206 233.582 159.628 234.371 160.472 234.968 L 174.569 245.639 C 176.242 246.905 178.969 246.905 180.641 245.639 C 182.315 244.373 182.315 242.328 180.641 241.063 L 173.88 235.96 L 204.381 235.96 C 206.756 235.96 208.682 234.513 208.682 232.721 C 208.682 230.929 206.756 229.481 204.381 229.481 L 173.88 229.481 L 180.654 224.379 C 182.327 223.114 182.327 221.068 180.654 219.803 C 178.969 218.537 176.255 218.537 174.569 219.803 Z" transform="matrix(-1, 0, 0, -1, 367.888011, 465.442015)"/>
</svg>
