<?xml version="1.0" encoding="utf-8"?>
<svg viewBox="0 0 470 250" xmlns="http://www.w3.org/2000/svg">
  <rect style="fill: rgb(216, 216, 216);" x="0" y="0" width="470" height="250"/>
  <rect x="45" y="50" width="100" height="160" style="fill: rgb(158, 16, 16);"/>
  <rect x="160" y="50" width="108.105" height="162.502" style="fill: rgb(158, 16, 16);"/>
  <rect x="288.903" y="50" width="108.105" height="162.502" style="fill: rgb(158, 16, 16);"/>
  <text x="179.75" y="81.119" style="fill: rgb(255, 255, 255); font-family: Ubuntu, sans-serif; font-size: 18px; white-space: pre;">main size</text>
  <text x="305.774" y="137.095" style="fill: rgb(255, 255, 255); font-family: Ubuntu, sans-serif; font-size: 18px; white-space: pre;">cross size</text>
  <path d="M 336.651 158.643 L 322.554 169.273 C 321.71 169.86 321.288 170.659 321.288 171.541 C 321.288 172.422 321.71 173.211 322.554 173.808 L 336.651 184.479 C 338.324 185.745 341.051 185.745 342.723 184.479 C 344.397 183.213 344.397 181.168 342.723 179.903 L 335.962 174.8 L 366.463 174.8 C 368.838 174.8 370.764 173.353 370.764 171.561 C 370.764 169.769 368.838 168.321 366.463 168.321 L 335.962 168.321 L 342.736 163.219 C 344.409 161.954 344.409 159.908 342.736 158.643 C 341.051 157.377 338.337 157.377 336.651 158.643 Z" style="fill: rgb(255, 255, 255);" transform="matrix(0, -1, 1, 0, 174.465011, 517.587012)"/>
  <path d="M 436.127 156.344 L 422.03 166.974 C 421.186 167.561 420.764 168.36 420.764 169.242 C 420.764 170.123 421.186 170.912 422.03 171.509 L 436.127 182.18 C 437.8 183.446 440.527 183.446 442.199 182.18 C 443.873 180.914 443.873 178.869 442.199 177.604 L 435.438 172.501 L 465.939 172.501 C 468.314 172.501 470.24 171.054 470.24 169.262 C 470.24 167.47 468.314 166.022 465.939 166.022 L 435.438 166.022 L 442.212 160.92 C 443.885 159.655 443.885 157.609 442.212 156.344 C 440.527 155.078 437.813 155.078 436.127 156.344 Z" transform="matrix(0, 0, -1, -1, 0, 620)"/>
  <path d="M 202.767 91.831 L 188.67 102.461 C 187.826 103.048 187.404 103.847 187.404 104.729 C 187.404 105.61 187.826 106.399 188.67 106.996 L 202.767 117.667 C 204.44 118.933 207.167 118.933 208.839 117.667 C 210.513 116.401 210.513 114.356 208.839 113.091 L 202.078 107.988 L 232.579 107.988 C 234.954 107.988 236.88 106.541 236.88 104.749 C 236.88 102.957 234.954 101.509 232.579 101.509 L 202.078 101.509 L 208.852 96.407 C 210.525 95.142 210.525 93.096 208.852 91.831 C 207.167 90.565 204.453 90.565 202.767 91.831 Z" transform="matrix(-1, 0, 0, -1, 424.284, 209.498014)" style="fill: rgb(255, 255, 255);"/>
  <text x="55.302" y="79.222" style="fill: rgb(255, 251, 251); font-family: Ubuntu, sans-serif; font-size: 22px; white-space: pre;">flex item</text>
  <text x="71.841" y="26.351" style="font-family: Ubuntu, sans-serif; font-size: 18px; white-space: pre;">main axis</text>
  <path d="M 180.806 7.51 L 166.709 18.14 C 165.865 18.727 165.443 19.526 165.443 20.408 C 165.443 21.289 165.865 22.078 166.709 22.675 L 180.806 33.346 C 182.479 34.612 185.206 34.612 186.878 33.346 C 188.552 32.08 188.552 30.035 186.878 28.77 L 180.117 23.667 L 210.618 23.667 C 212.993 23.667 214.919 22.22 214.919 20.428 C 214.919 18.636 212.993 17.188 210.618 17.188 L 180.117 17.188 L 186.891 12.086 C 188.564 10.821 188.564 8.775 186.891 7.51 C 185.206 6.244 182.492 6.244 180.806 7.51 Z" transform="matrix(-1, 0, 0, -1, 380.361986, 40.856)"/>
</svg>