<?xml version="1.0" encoding="utf-8"?>
<svg viewBox="0 0 470 250" xmlns="http://www.w3.org/2000/svg">
  <rect style="fill: rgb(216, 216, 216);" x="0" y="0" width="470" height="250"/>
  <rect x="45" y="50" width="100" height="160" style="fill: rgb(158, 16, 16);"/>
  <rect x="160" y="50" width="108.105" height="162.502" style="fill: rgb(158, 16, 16);"/>
  <rect x="288.903" y="50" width="108.105" height="162.502" style="fill: rgb(158, 16, 16);"/>
  <text x="11.651" y="232.679" transform="matrix(1, 0, 0, 1.000001, -4.338042, -197.92334)" style="fill: rgb(132, 15, 15); font-family: Ubuntu, sans-serif; font-size: 18px; font-weight: bold; white-space: pre;">main start</text>
  <path d="M 436.127 156.344 L 422.03 166.974 C 421.186 167.561 420.764 168.36 420.764 169.242 C 420.764 170.123 421.186 170.912 422.03 171.509 L 436.127 182.18 C 437.8 183.446 440.527 183.446 442.199 182.18 C 443.873 180.914 443.873 178.869 442.199 177.604 L 435.438 172.501 L 465.939 172.501 C 468.314 172.501 470.24 171.054 470.24 169.262 C 470.24 167.47 468.314 166.022 465.939 166.022 L 435.438 166.022 L 442.212 160.92 C 443.885 159.655 443.885 157.609 442.212 156.344 C 440.527 155.078 437.813 155.078 436.127 156.344 Z" transform="matrix(0, 0, -1, -1, 0, 620)"/>
  <text x="161.855" y="33.943" style="font-family: Ubuntu, sans-serif; font-size: 18px; white-space: pre;">main axis</text>
  <path d="M 270.82 15.102 L 256.723 25.732 C 255.879 26.319 255.457 27.118 255.457 28 C 255.457 28.881 255.879 29.67 256.723 30.267 L 270.82 40.938 C 272.493 42.204 275.22 42.204 276.892 40.938 C 278.566 39.672 278.566 37.627 276.892 36.362 L 270.131 31.259 L 300.632 31.259 C 303.007 31.259 304.933 29.812 304.933 28.02 C 304.933 26.228 303.007 24.78 300.632 24.78 L 270.131 24.78 L 276.905 19.678 C 278.578 18.413 278.578 16.367 276.905 15.102 C 275.22 13.836 272.506 13.836 270.82 15.102 Z" transform="matrix(-1, 0, 0, -1, 560.390037, 56.039999)"/>
  <text x="11.651" y="232.679" transform="matrix(1, 0, 0, 1.000001, 374.156128, -196.29657)" style="fill: rgb(132, 15, 15); font-family: Ubuntu, sans-serif; font-size: 18px; font-weight: bold; white-space: pre;">main end</text>
</svg>